<?xml version="1.0" encoding="UTF-8"?>
<svg id="_レイヤー_1" data-name="レイヤー 1" xmlns="http://www.w3.org/2000/svg" viewBox="0 0 800 600">
  <defs>
    <style>
      .cls-1 {
        fill: none;
        stroke: #040000;
        stroke-linecap: square;
      }

      .cls-1, .cls-2 {
        fill-rule: evenodd;
        stroke-linejoin: round;
      }

      .cls-2 {
        fill: #fff;
        stroke: #000;
        stroke-linecap: round;
        stroke-width: 1.5px;
      }
    </style>
  </defs>
  <path class="cls-2" d="m197.89,112.47s-1.57-3.28,0-9.24c1.57-5.96,18.48-13.86,18.48-13.86,0,0,8.59,17.19,13.86,13.86,5.26-3.33,7.07-9.47,9.24-13.86,2.17-4.39,0-9.24,0-9.24l9.24-13.86s-1.71-1.57,0-4.62c1.71-3.05-1.66-5.77,9.24-9.24,10.9-3.46,14.64,3.46,18.48,0,3.83-3.46,6.74-6.23,9.24-9.24,2.49-3,15.15-3.14,18.48,0,3.33,3.14,12.06,8.73,13.86,4.62,1.8-4.11,3.05-2.03,4.62,0,1.57,2.03,3.28,13.86,4.62,18.48,1.34,4.62,4.85,8.13,9.24,13.86s2.68,14.09,9.24,13.86c6.56-.23,9.24,4.62,9.24,4.62,0,0-.09,6.89-1.29,10.28-.89,2.54,1.64,4.25-8.47,3.74-10.12-.51-13.08-1.65-16.13.47-3.05,2.12-4.93,9.81-11.07,13.23s-10.27,6.35-10.69,10.18c-.41,3.83,2.74,5.8,1.45,8.3-1.29,2.49-5.84,6.32-4.84,10.19.66,2.54,3.09,5.97,4.43,7.78,1.34,1.8,1.5,18.53.41,23.61-.4,1.84-15.68-1.33-19.56-5.9-3.88-4.57-4.51-5.79-8.16-3.34-3.02,2.04-14.23,1.75-18.48,9.24-4.25,7.48-13.26,23.31-14.13,21.3-1.31-3.02-4.35-12.07-4.35-12.07,0,0-5.91-11.04-4.62-13.86,1.29-2.82-4.62-4.62-4.62-4.62l-6.9-3.94s6.05-8.94,7.57-10.88c1.52-1.94,4.87-8.56,8.56-8.28,3.69.28,3.03-1.35,9.78-6.11,6.74-4.75,8.11-4.05,9.13-10.1,1.02-6.05-5.05-11.51-5.05-11.51,0,0-5.68-3.42-9.24,0-3.56,3.42-7.13,9.24-9.24,9.24-2.89,0-9.24-9.24-9.24-9.24l-4.62-4.62s-4.98-5.42-7.36-4.33c-2.02.92-10.85,7.58-10.85,7.58l-4.89,1.37s-6.19-2.12-4.62-4.62c1.57-2.49,0-9.24,0-9.24Z"/>
  <path class="cls-2" d="m382.68,103.23s18.2-5.49,18.48-9.24c.28-3.74,5.87-15.2,9.24-13.86,3.37,1.34,12.93,6.6,13.86,9.24.92,2.63,3.93,10.16,4.62,13.86.69,3.69-1.57,10.85,0,13.86,1.57,3,7.21,10.67,0,13.86s-13.86,4.62-13.86,4.62c0,0-.92,4.53-4.62,4.62-3.69.09-13.03,11.83-9.24,13.86,3.79,2.03,13.86,4.62,13.86,4.62l13.86-4.62s2.4,2.82,4.62,4.62c2.22,1.8,7.48,2.59,9.24,0,1.75-2.59.46-12.38,4.62-9.24,4.16,3.14,9.05,7.43,9.24,9.24.18,1.8-9.01,8.31-9.24,13.86-.23,5.54-1.06,6.79,4.62,9.24,5.68,2.45,7.53-3.74,9.24,4.62,1.71,8.36-3.46,7.95,0,13.86,3.46,5.91,6.24,12.15,9.24,13.86,3,1.71,3.6,2.26,4.62,4.62,1.02,2.36-6.33,12.2-9.24,13.86-2.91,1.66-4.33,3.03-7.82,3.99-6.57,1.8-8.67.47-10.66-2.26-1.99-2.73-4.14-7.66-5.77-5.9-3.07,3.33-10.82,8.89-10.82,8.89,0,0-19.3,1.8-26.6,4.18-5,1.63-3.15,0-6.24-4.17-1.26-1.7-5.86-11.26-5.99-9.36-.14,1.89-8.67,9.67-8.67,9.67,0,0-7.96-2.32-9.81-5.05-1.85-2.72-1.05.28-4.62-9.24-4.04-10.78-8.91-7.57-9.24-18.48-.33-10.92,2.64-12.66-3.54-21.66-3.92-5.7-6.36-14.55-8.51-15.06-3.08-.74-15.14.25-15.14.25,0,0-5.67-7.88-5.1-1.23.64,7.49,4.62,19.51,4.56,19.23,0,0,6.14.58,5.17,2.69-1.29,2.8-16.41,13.68-19.03,11.17-3.29-3.15-9.24-13.86-9.24-13.86v-23.1s-5.58-5.78-4.89-10.39c.65-4.35,5.35-10.9,5.35-10.9,0,0-5.79-5.61,2.43-11.58,10.55-7.67,4.43-.62,11.3-8.63,4.54-5.29,5.11-9.66,8.04-9.79,3-.13,19.34.47,19.34.47l3.07-1.46,1.55-12.4h18.48l9.24,4.62Z"/>
  <path class="cls-2" d="m151.7,144.81c3-.14,8.45,2.31,9.24-4.62.78-6.93-5.75-12.06-4.62-13.86,1.93-3.08-6.28-2.59,0-9.24,6.28-6.65,13.53-15.8,13.86-13.86.32,1.94,11.13,2.03,9.24,4.62-1.89,2.59,3.23,11.09,4.62,13.86,1.38,2.77.83,8.22,4.62,4.62,3.79-3.6,8.54-3.66,8.54-3.66,0,0,2.79,3.65,6.04,3.59,4.07-.08,10.69-5.81,10.69-5.81,0,0,3.23-3.44,5.53-3.16,2.29.29,8.04,5.4,10.78,9.04,2.81,3.74,6.82,8.61,9.24,9.24,2.24.59,7.93-9.71,12.19-10.68,4.26-.97,7.09,1.27,9.69,5.74,2.49,4.28,2.14,4.95,1.21,9.57-.89,4.4-7.43,5.15-11.23,10.27-3.92,5.3-10.14,3.46-13.43,8.38-3.2,4.79-5.4,8.67-5.4,8.67,0,0-.57,4.25-3.44,5.36-2.86,1.11-2.32-.41-5.6-1.06-3.28-.65-7.1-3.91-7.1-3.91,0,0,.64-.05-4.62,4.62-5.26,4.66-9.7-1.57-9.24,4.62.46,6.19-3.09,7.02,0,9.24,3.09,2.22,7.48,3.09,9.24,9.24,1.75,6.14,0,9.24,0,9.24,0,0-5.5-5.66-12.7-5.01s-4.81,1.68-10.39-4.23c-6.14-6.5-7.62-10.45-9.24-13.86-1.7-3.59-5.21-9.77-5.21-9.77,0,0-8.09-1.99-11.39-3.44-6.72-2.95-12.45-12.77-12.45-12.77,0,0-1.67-10.84,1.34-10.98Z"/>
  <path class="cls-2" d="m207.13,223.34c2.86-1.38,16.95.97,23.1,4.62,6.14,3.65,6.19,7.8,9.24,9.24,3.05,1.43,3.97,9.61,0,13.86-3.97,4.25-23.1,13.86-23.1,13.86,0,0-16.95,1.24-13.86-4.62,3.09-5.86,10.12-3.83,9.24-9.24-.88-5.4-4.62-13.86-4.62-13.86,0,0-2.45-6.28-4.62-4.62-2.17,1.66-.51,7.16-9.24,9.24-8.73,2.08-12.84,1.89-13.86,4.62-1.01,2.72-11.78,18.43-13.86,18.48-2.08.05-13.35,18.43-13.86,9.24-.51-9.19,4.48-12.84,4.62-18.48.14-5.64,4.25-12.01,0-18.48-4.25-6.47-10.3-9.84-13.86-13.86-3.56-4.02-16.26-13.16-13.86-13.86s9.24-13.86,9.24-13.86v-9.24s6.88,7.48,9.24,9.24c2.35,1.75-1.01.92,4.62,9.24,5.63,8.31,11.09,11.5,9.24,13.86-1.85,2.36,4.06,1.61,4.62,4.62.55,3,6.51,7.11,9.24,4.62,2.72-2.49,13.12-.18,9.24-9.24-3.88-9.05-11.09-10.76-9.24-13.86,1.85-3.09-4.62-9.24-4.62-9.24,0,0-2.12-8.82-9.24-9.24-7.11-.41-9.24-4.62-9.24-4.62,0,0-5.68-3.79-9.24-4.62-3.56-.83-9.24-4.62-9.24-4.62,0,0-1.71,2.4-4.62,0-2.91-2.4-10.3-7.3-9.24-9.24,1.06-1.94,4.66-11.73,4.62-13.86-.05-2.12,4.62-13.86,4.62-13.86l9.24,4.62,13.86,4.62s-2.29,9.94,1.59,15.25c3.88,5.31,8.01,7.97,8.01,7.97l8.76,3.03s2.89-.56,4.74,1.47c1.85,2.03,3.19,7.92,6.49,13.13,3.63,5.72,11.99,14.59,11.99,14.59,0,0,7.65-.76,9.86-.11s8.84,4.21,8.84,4.21c0,0-1.98,2.33-.23,5.14,1.75,2.82-7.48,15.24-4.62,13.86Z"/>
  <path class="cls-2" d="m257.95,311.11s.92,8.87-4.62,13.86-12.52,3.83-13.86,9.24c-1.34,5.4-4.62,13.86-4.62,13.86,10.88,1.33,10.25,1.75,18.48,0,6.74-1.43,9.56-2.54,13.86-4.62,4.3-2.08,6.72,3.03,9.24,4.62,1.38.87-1.93.22,9.24,4.62,7.3,2.88,15.89,8.79,22.54,4.26,6.65-4.53,7.48-10.21,14.43-10.21,8.69,0,10.49.33,14.69-4.33,7.1-7.88,9.53-10.18,9.05-13.97-.39-3.08-2.57-8.02-2.8-11.35-.23-3.33-1.68-6.89-3.88-15.73-1.43-5.72-5.01-10.2-7.5-13.85-1.76-2.58-4.95-8.72-4.95-8.72l11.52-11.08s4.5-4.56,9.95-10.2c5.45-5.64,5.42-8.14,7.62-12.06,2.38-4.24,7.87-12.86,7.87-12.86l4.62-9.24-4.62-9.24s-5.22-7.02-4.62-9.24c.6-2.22.28-7.95,0-13.86-.28-5.91-1.94-4.66-4.62-9.24-2.68-4.57-5.07-13.41-9.24-13.86-8.47-.9-12.75,1.98-13.86,0-2.74-4.9-4.34-4.21-4.56-2.11-.55,5.08,4.56,20.59,4.56,20.59,0,0,8.75.21,4.07,4.11-5.14,4.27-6.3,6.2-11.76,8.41-2.78,1.13-4.18,2.6-5.23,1.7-6.47-5.53-8-13.8-10.18-14.22-2.17-.41-6.39.37-12.01-1.62-5.43-1.92-2.71-.3-6.16-3.02-3.23-2.55-3.11-7.91-6.58-6.27-4.09,1.94-8.14,3.45-12,4.33-2.89.65-8.32,3.33-9.94,7.3-1.62,3.97-1.8.92-7.29,10.64-5.97,10.59-6.35,9.49-5.97,10.59,2.01,5.86,4.38,9.37,9.14,15.01,4.76,5.64,4.94,6.7,9.24,9.24,4.3,2.54,6.7,4.53,4.62,9.24-2.08,4.71-1.02,10.72-4.62,13.86-3.6,3.14-23.1,13.86-23.1,13.86,0,0,17.92,4.57,23.1,0,5.17-4.57,14.64-12.15,13.86-9.24-.78,2.91-1.43,5.86-4.62,9.24-3.19,3.37-9.15,5.45-9.24,9.24-.09,3.79-3,9.89-4.62,13.86-1.62,3.97-4.62,18.48-4.62,18.48Z"/>
  <path class="cls-2" d="m220.99,297.25s0-5.54,4.62-9.24c4.62-3.69,9.24-4.62,9.24-4.62h13.86v9.24s-7.02,7.48-9.24,9.24c-2.22,1.75-13.86,4.62-13.86,4.62l-4.62-9.24Z"/>
  <path class="cls-2" d="m184.04,301.87s-1.8-8.41,4.62-13.86c6.42-5.45,13.86-9.24,13.86-9.24,0,0,2.63,1.48,4.62,0,1.98-1.48,2.86,1.06,4.62,4.62,1.75,3.55,5.73,9.24,4.62,13.86-1.11,4.62-4.62,13.86-4.62,13.86,0,0-2.22,9.28-4.62,9.24-2.4-.05-5.54,4.48-9.24,9.24-3.69,4.75-13.86,9.24-13.86,9.24,0,0-6.24-6.97-4.62-9.24,1.62-2.26,4.62-13.86,4.62-13.86v-13.86Z"/>
  <path class="cls-2" d="m391.92,412.74s5.4,20.09,0,23.1c-5.4,3-10.44,6.7-9.24,9.24,1.2,2.54,1.43,7.58,0,13.86-1.43,6.28,1.85,10.9-4.62,13.86-6.47,2.96-23.05-5.38-23.05-5.38,0,0,.14-2.7-.05-13.1-.09-4.94,0-23.1,0-23.1l-22.27-10.31s1-1.09-1.17-5.06c-2.17-3.97-10.16-8.33-10.16-8.33l-12.6.61,4.62-13.86s-14.52-14.83-17.66-21.38c-3.22-6.7-3.19-10.54-3.19-10.54l-6.86-9.66,8.89,3.93,12.22,1.64s7.68-7,11.23-10.19c3.56-3.19,14.09.97,18.48-4.62s11.46-12.05,9.24-18.48-8.42-30.49-9.75-31.92c-1.24-1.33-8.72-14.27-8.72-14.27,0,0,6.61-7.34,9.24-9.24,2.63-1.89,12.6-12.14,13.86-13.86,1.41-1.93,7.33-12.41,8.35-14.24,2.55-4.58,5.51-8.85,5.51-8.85l4.62-9.24s7.01,12.64,9.32,12.31c2.31-.32,3.93,2.9,6.46.78,2.1-1.76,7.31-8.47,7.31-8.47l9.12,14.25s23.63-5.56,27.83-5.01c4.2.55,12.98-10.26,13.86-9.24.88,1.02,6.23,9.24,9.24,9.24,4.62,0,12.16-3.66,10.15-2.07-3.48,2.75-11.91,20.05-14.77,20.55-2.86.51-7.71,6.51-9.24,9.24-1.52,2.72-7.3,14.46-9.24,13.86-1.94-.6,2.82,7.67,0,9.24-2.82,1.57-13.49,16.54-13.86,23.1s-3.6,8.45-4.62,18.48c-1.02,10.02-10.39,20.79-9.24,27.72,1.15,6.93-3.37,7.62-4.62,13.86-1.25,6.23-4.62,41.58-4.62,41.58Z"/>
  <path class="cls-2" d="m211.75,495.89c-1.41-1.05-2.89-15.59-4.62-18.48-1.02-1.71-9.24-9.24-9.24-9.24,0,0-1.98-6.28,4.62-4.62l18.48,4.62s-3.09-8.04,0-13.86c3.09-5.82,8.36-3.88,9.24-9.24s0-11.83,0-13.86-9.7-11.64-9.24-13.86c.46-2.22-5.73-7.48-9.24-9.24-3.51-1.75-9.24-9.24-9.24-9.24,0,0,8.36-5.77,9.24-9.24.88-3.46,1.75-11.96,0-13.86-1.75-1.89-4.62-4.62-4.62-4.62v-9.24l-4.62-9.24s4.85,1.66,9.24,0,10.99-4.94,13.86-4.62c2.86.32,9.24,0,9.24,0l11.55,1.13,14.37-3.07s8.93-5.14,11.04-2.68c4.94,5.77,13.86,9.24,13.86,9.24,0,0,1.91,2.17,6.16,8.47,2.42,3.58.17,3.78,3.08,10.01,2.91,6.23,4.72,7.59,8.42,12.11,3.59,4.38,10.05,10.98,10.05,10.98l-4.62,13.86s11.63-2.11,13.86,0c2.33,2.21,7.89,4.78,8.9,7.72,1.92,5.58,3.8,6.09,7.25,7.88,6.39,3.3,7.2,3.33,7.2,3.33l8.99,4.16v18.48s-.58,13.28.89,17.31c.7,1.92-11.89-3.37-14.75-3.46-2.86-.09-9.47,2.31-9.24,4.62s0,9.24,0,9.24c0,0,8.53,2.85,9.24,4.62,1.15,2.89,0,18.48,0,18.48,0,0-.23.18-4.62,0s-3.56-1.11-9.24,4.62c-5.68,5.73-7.95,9.7-13.86,13.86-5.91,4.16-9.24,0-9.24,0l-9.24,4.62-9.24,9.24s-6.74,1.34-9.24,0c-1.97-1.06,10.26-20.23,9.24-18.48-.09.14-.14.23-.14.23,0,0,4.29-7.48,4.76-9.47.51-2.17,4.62-13.86,4.62-13.86v-18.48s-3.37-3.88-4.62-9.24c-1.25-5.36,0-13.86,0-13.86,0,0-15.34,2.2-18.48,0-3.14-2.2-3.14-9.86,0-13.86,2.56-3.26,8.19,0,8.19,0h5.67s1.48,3.6,4.62,4.62c3.14,1.02,4.62-4.62,4.62-4.62l4.62-9.24s-7.11,1.34-9.24-4.62c-2.12-5.96-9.24-9.24-9.24-9.24l-9.24,4.62s-5.4,20.33-4.62,23.1c.78,2.77-4.62,9.24-4.62,9.24,0,0-6.74-1.89-4.62,4.62s3.6,11.55,4.62,13.86c1.02,2.31-5.4,3.88,0,9.24,5.4,5.36,1.2,13.58,4.62,13.86,3.42.28,9.79,2.82,9.24,4.62-.55,1.8,3.19,6.14,0,9.24-3.19,3.09-16.21,6.14-18.48,4.62-2.26-1.52-4.62-9.24-4.62-9.24,0,0-1.06-11.27-4.62-9.24-3.56,2.03-23.1,4.62-23.1,4.62,0,0-12.32,1.15-13.86,0Z"/>
  <path class="cls-2" d="m570.06,477.36l10.82-2.71,2.71-5.41,5.41-5.41-10.82-8.12h8.12s6.63,6.66,8.12,5.41c1.49-1.24,8.12-5.41,8.12-5.41l5.41-10.82,5.41-8.12s4.47,2.52,5.41,5.41c.95,2.9-2.11,9.23-2.71,10.82-.6,1.6-.08,7.25-2.71,8.12-2.63.87-6.71,6.25-8.12,5.41-1.41-.84-6.38.95-8.12,2.71l-8.12,8.12s-1.33,1.73-5.41,2.71c-4.09.97-2.38.22-2.71,2.71-.32,2.49,2.71,5.41,2.71,5.41,0,0-8.98.92-8.12,2.71.87,1.79-2.71,10.82-2.71,10.82l5.41,2.71-5.41,5.41h-5.41l-5.41-5.41,5.41-8.12,2.71-5.41-2.71-8.12,2.71-5.41Z"/>
  <polyline class="cls-1" points="664.72 357.78 545.22 357.78 476.22 426.78 476.22 528.72"/>
</svg>